<svg viewBox="0 0 1280 720" xmlns="http://www.w3.org/2000/svg">
<rect width="1280" height="720" fill="#0a0c10"/>
<rect width="220" height="720" fill="#141820"/>
<rect x="220" width="1" height="720" fill="#2a3040"/>
<rect width="220" height="44" fill="#141820"/>
<rect y="44" width="220" height="1" fill="#2a3040"/>
<text x="14" y="27" fill="#7890b0" font-family="Segoe UI,sans-serif" font-size="11" font-weight="700" letter-spacing="1">CHARACTERS</text>
<rect x="0" y="45" width="220" height="56" fill="rgba(74,144,217,0.12)"/>
<rect x="0" y="45" width="3" height="56" fill="#4a90d9"/>
<rect x="14" y="55" width="36" height="36" rx="4" fill="#2a3540"/>
<text x="32" y="78" fill="#c8d8f0" font-family="Segoe UI,sans-serif" font-size="18" text-anchor="middle">&#x2B21;</text>
<text x="58" y="70" fill="#c8d8f0" font-family="Segoe UI,sans-serif" font-size="13" font-weight="600">Caldari Prime</text>
<text x="58" y="86" fill="#4a5870" font-family="Segoe UI,sans-serif" font-size="11">6 planets</text>
<rect x="178" y="52" width="28" height="16" rx="3" fill="rgba(224,64,64,0.2)"/>
<text x="192" y="64" fill="#e04040" font-family="Segoe UI,sans-serif" font-size="11" font-weight="600" text-anchor="middle">2</text>
<rect x="14" y="115" width="36" height="36" rx="4" fill="#2a3540"/>
<text x="32" y="138" fill="#c8d8f0" font-family="Segoe UI,sans-serif" font-size="18" text-anchor="middle">&#x2B21;</text>
<text x="58" y="130" fill="#c8d8f0" font-family="Segoe UI,sans-serif" font-size="13" font-weight="600">Minmatar Alt</text>
<text x="58" y="146" fill="#4a5870" font-family="Segoe UI,sans-serif" font-size="11">4 planets</text>
<rect x="14" y="171" width="36" height="36" rx="4" fill="#2a3540"/>
<text x="32" y="194" fill="#c8d8f0" font-family="Segoe UI,sans-serif" font-size="18" text-anchor="middle">&#x2B21;</text>
<text x="58" y="186" fill="#c8d8f0" font-family="Segoe UI,sans-serif" font-size="13" font-weight="600">Gallente Hauler</text>
<text x="58" y="202" fill="#4a5870" font-family="Segoe UI,sans-serif" font-size="11">5 planets</text>
<rect x="12" y="668" width="196" height="34" rx="6" fill="#2a5090"/>
<text x="110" y="690" fill="#4a90d9" font-family="Segoe UI,sans-serif" font-size="12" font-weight="600" text-anchor="middle">+ Add Character</text>
<rect x="220" y="0" width="1060" height="44" fill="#141820"/>
<rect x="220" y="44" width="1060" height="1" fill="#2a3040"/>
<text x="246" y="27" fill="#4a90d9" font-family="Segoe UI,sans-serif" font-size="13" font-weight="500">Production Chain</text>
<rect x="240" y="41" width="118" height="3" rx="1" fill="#4a90d9"/>
<text x="380" y="27" fill="#7890b0" font-family="Segoe UI,sans-serif" font-size="13">Planet Cards</text>
<text x="470" y="27" fill="#7890b0" font-family="Segoe UI,sans-serif" font-size="13">Gap Analysis</text>
<text x="568" y="27" fill="#7890b0" font-family="Segoe UI,sans-serif" font-size="13">Haul Plan</text>
<rect x="220" y="45" width="1060" height="38" fill="#0d0f14"/>
<rect x="220" y="83" width="1060" height="1" fill="#2a3040"/>
<rect x="262" y="57" width="22" height="16" rx="3" fill="#607060"/>
<text x="273" y="69" fill="#fff" font-family="Segoe UI,sans-serif" font-size="10" font-weight="700" text-anchor="middle">P0</text>
<text x="290" y="69" fill="#4a5870" font-family="Segoe UI,sans-serif" font-size="11" font-weight="700" letter-spacing=".5">EXTRACTION</text>
<rect x="570" y="57" width="22" height="16" rx="3" fill="#4a7090"/>
<text x="581" y="69" fill="#fff" font-family="Segoe UI,sans-serif" font-size="10" font-weight="700" text-anchor="middle">P1</text>
<text x="599" y="69" fill="#4a5870" font-family="Segoe UI,sans-serif" font-size="11" font-weight="700" letter-spacing=".5">PROCESSING</text>
<rect x="882" y="57" width="22" height="16" rx="3" fill="#6050a0"/>
<text x="893" y="69" fill="#fff" font-family="Segoe UI,sans-serif" font-size="10" font-weight="700" text-anchor="middle">P2</text>
<text x="911" y="69" fill="#4a5870" font-family="Segoe UI,sans-serif" font-size="11" font-weight="700" letter-spacing=".5">REFINING</text>
<!-- Lava node -->
<rect x="252" y="104" width="240" height="168" rx="8" fill="#1a1f2e" stroke="#2a3040" stroke-width="1"/>
<rect x="252" y="104" width="240" height="3" rx="2" fill="#8c3a28"/>
<rect x="252" y="104" width="240" height="42" fill="#8c3a28" opacity=".85"/>
<rect x="252" y="104" width="240" height="8" rx="8" fill="#8c3a28" opacity=".85"/>
<text x="265" y="122" fill="#fff" font-family="Segoe UI,sans-serif" font-size="13" font-weight="700">Sinq Laison IV</text>
<text x="462" y="122" fill="rgba(255,255,255,.65)" font-family="Segoe UI,sans-serif" font-size="10">lava</text>
<text x="265" y="138" fill="rgba(255,255,255,.5)" font-family="Segoe UI,sans-serif" font-size="10">Caldari Prime</text>
<text x="265" y="162" fill="#4a5870" font-family="Segoe UI,sans-serif" font-size="10" font-weight="700" letter-spacing=".5">EXTRACTS</text>
<rect x="265" y="168" width="90" height="16" rx="3" fill="rgba(96,112,96,.15)" stroke="#607060" stroke-width="1"/>
<text x="310" y="180" fill="#707870" font-family="Segoe UI,sans-serif" font-size="11" text-anchor="middle">Base Metals</text>
<rect x="361" y="168" width="78" height="16" rx="3" fill="rgba(96,112,96,.15)" stroke="#607060" stroke-width="1"/>
<text x="400" y="180" fill="#707870" font-family="Segoe UI,sans-serif" font-size="11" text-anchor="middle">Heavy Metals</text>
<text x="265" y="204" fill="#4a5870" font-family="Segoe UI,sans-serif" font-size="10" font-weight="700" letter-spacing=".5">PRODUCES</text>
<rect x="265" y="210" width="90" height="16" rx="3" fill="rgba(74,112,144,.15)" stroke="#4a7090" stroke-width="1"/>
<text x="310" y="222" fill="#4a90c8" font-family="Segoe UI,sans-serif" font-size="11" text-anchor="middle">Reactive Metals</text>
<rect x="361" y="210" width="78" height="16" rx="3" fill="rgba(74,112,144,.15)" stroke="#4a7090" stroke-width="1"/>
<text x="400" y="222" fill="#4a90c8" font-family="Segoe UI,sans-serif" font-size="11" text-anchor="middle">Toxic Metals</text>
<text x="265" y="248" fill="#4a5870" font-family="Segoe UI,sans-serif" font-size="10">Updated 3 days ago · 12 pins</text>
<!-- Barren node -->
<rect x="252" y="292" width="240" height="152" rx="8" fill="#1a1f2e" stroke="#2a3040" stroke-width="1"/>
<rect x="252" y="292" width="240" height="3" rx="2" fill="#7a5f38"/>
<rect x="252" y="292" width="240" height="42" fill="#7a5f38" opacity=".85"/>
<rect x="252" y="292" width="240" height="8" rx="8" fill="#7a5f38" opacity=".85"/>
<text x="265" y="310" fill="#fff" font-family="Segoe UI,sans-serif" font-size="13" font-weight="700">Sinq Laison IV b</text>
<text x="462" y="310" fill="rgba(255,255,255,.65)" font-family="Segoe UI,sans-serif" font-size="10">barren</text>
<text x="265" y="326" fill="rgba(255,255,255,.5)" font-family="Segoe UI,sans-serif" font-size="10">Caldari Prime</text>
<text x="265" y="350" fill="#4a5870" font-family="Segoe UI,sans-serif" font-size="10" font-weight="700" letter-spacing=".5">EXTRACTS</text>
<rect x="265" y="356" width="100" height="16" rx="3" fill="rgba(96,112,96,.15)" stroke="#607060" stroke-width="1"/>
<text x="315" y="368" fill="#707870" font-family="Segoe UI,sans-serif" font-size="11" text-anchor="middle">Noble Metals</text>
<text x="265" y="392" fill="#4a5870" font-family="Segoe UI,sans-serif" font-size="10" font-weight="700" letter-spacing=".5">PRODUCES</text>
<rect x="265" y="398" width="100" height="16" rx="3" fill="rgba(74,112,144,.15)" stroke="#4a7090" stroke-width="1"/>
<text x="315" y="410" fill="#4a90c8" font-family="Segoe UI,sans-serif" font-size="11" text-anchor="middle">Precious Metals</text>
<text x="265" y="432" fill="#4a5870" font-family="Segoe UI,sans-serif" font-size="10">Updated 1 day ago · 10 pins</text>
<!-- Storm node -->
<rect x="252" y="464" width="240" height="152" rx="8" fill="#1a1f2e" stroke="#2a3040" stroke-width="1"/>
<rect x="252" y="464" width="240" height="3" rx="2" fill="#4a5e78"/>
<rect x="252" y="464" width="240" height="42" fill="#4a5e78" opacity=".85"/>
<rect x="252" y="464" width="240" height="8" rx="8" fill="#4a5e78" opacity=".85"/>
<text x="265" y="482" fill="#fff" font-family="Segoe UI,sans-serif" font-size="13" font-weight="700">Seyllin II</text>
<text x="462" y="482" fill="rgba(255,255,255,.65)" font-family="Segoe UI,sans-serif" font-size="10">storm</text>
<text x="265" y="498" fill="rgba(255,255,255,.5)" font-family="Segoe UI,sans-serif" font-size="10">Minmatar Alt</text>
<text x="265" y="522" fill="#4a5870" font-family="Segoe UI,sans-serif" font-size="10" font-weight="700" letter-spacing=".5">EXTRACTS</text>
<rect x="265" y="528" width="78" height="16" rx="3" fill="rgba(96,112,96,.15)" stroke="#607060" stroke-width="1"/>
<text x="304" y="540" fill="#707870" font-family="Segoe UI,sans-serif" font-size="11" text-anchor="middle">Ionic Solutions</text>
<text x="265" y="564" fill="#4a5870" font-family="Segoe UI,sans-serif" font-size="10" font-weight="700" letter-spacing=".5">PRODUCES</text>
<rect x="265" y="570" width="86" height="16" rx="3" fill="rgba(74,112,144,.15)" stroke="#4a7090" stroke-width="1"/>
<text x="308" y="582" fill="#4a90c8" font-family="Segoe UI,sans-serif" font-size="11" text-anchor="middle">Electrolytes</text>
<text x="265" y="604" fill="#4a5870" font-family="Segoe UI,sans-serif" font-size="10">Updated 6 hrs ago · 8 pins</text>
<!-- Temperate P1 node -->
<rect x="562" y="130" width="240" height="186" rx="8" fill="#1a1f2e" stroke="#2a3040" stroke-width="1"/>
<rect x="562" y="130" width="240" height="3" rx="2" fill="#3d6b42"/>
<rect x="562" y="130" width="240" height="42" fill="#3d6b42" opacity=".85"/>
<rect x="562" y="130" width="240" height="8" rx="8" fill="#3d6b42" opacity=".85"/>
<text x="575" y="148" fill="#fff" font-family="Segoe UI,sans-serif" font-size="13" font-weight="700">Auvergne III</text>
<text x="775" y="148" fill="rgba(255,255,255,.65)" font-family="Segoe UI,sans-serif" font-size="10">temperate</text>
<text x="575" y="164" fill="rgba(255,255,255,.5)" font-family="Segoe UI,sans-serif" font-size="10">Caldari Prime</text>
<text x="575" y="190" fill="#4a5870" font-family="Segoe UI,sans-serif" font-size="10" font-weight="700" letter-spacing=".5">CONSUMES</text>
<rect x="575" y="196" width="90" height="16" rx="3" fill="rgba(74,112,144,.12)" stroke="#4a7090" stroke-width="1"/>
<text x="620" y="208" fill="#4a90c8" font-family="Segoe UI,sans-serif" font-size="11" text-anchor="middle">Reactive Metals</text>
<rect x="671" y="196" width="78" height="16" rx="3" fill="rgba(74,112,144,.12)" stroke="#4a7090" stroke-width="1"/>
<text x="710" y="208" fill="#4a90c8" font-family="Segoe UI,sans-serif" font-size="11" text-anchor="middle">Toxic Metals</text>
<text x="575" y="232" fill="#4a5870" font-family="Segoe UI,sans-serif" font-size="10" font-weight="700" letter-spacing=".5">PRODUCES</text>
<rect x="575" y="238" width="110" height="16" rx="3" fill="rgba(96,80,160,.15)" stroke="#6050a0" stroke-width="1"/>
<text x="630" y="250" fill="#a080e0" font-family="Segoe UI,sans-serif" font-size="11" text-anchor="middle">Construction Blocks</text>
<text x="575" y="298" fill="#4a5870" font-family="Segoe UI,sans-serif" font-size="10">Updated 12 hrs ago · 14 pins</text>
<!-- Gas P1 node -->
<rect x="562" y="346" width="240" height="186" rx="8" fill="#1a1f2e" stroke="#2a3040" stroke-width="1"/>
<rect x="562" y="346" width="240" height="3" rx="2" fill="#6a4a8c"/>
<rect x="562" y="346" width="240" height="42" fill="#6a4a8c" opacity=".85"/>
<rect x="562" y="346" width="240" height="8" rx="8" fill="#6a4a8c" opacity=".85"/>
<text x="575" y="364" fill="#fff" font-family="Segoe UI,sans-serif" font-size="13" font-weight="700">Luminaire VII</text>
<text x="775" y="364" fill="rgba(255,255,255,.65)" font-family="Segoe UI,sans-serif" font-size="10">gas</text>
<text x="575" y="380" fill="rgba(255,255,255,.5)" font-family="Segoe UI,sans-serif" font-size="10">Gallente Hauler</text>
<text x="575" y="406" fill="#4a5870" font-family="Segoe UI,sans-serif" font-size="10" font-weight="700" letter-spacing=".5">CONSUMES</text>
<rect x="575" y="412" width="86" height="16" rx="3" fill="rgba(74,112,144,.12)" stroke="#4a7090" stroke-width="1"/>
<text x="618" y="424" fill="#4a90c8" font-family="Segoe UI,sans-serif" font-size="11" text-anchor="middle">Electrolytes</text>
<rect x="667" y="412" width="86" height="16" rx="3" fill="rgba(74,112,144,.12)" stroke="#4a7090" stroke-width="1"/>
<text x="710" y="424" fill="#4a90c8" font-family="Segoe UI,sans-serif" font-size="11" text-anchor="middle">Precious Metals</text>
<text x="575" y="448" fill="#4a5870" font-family="Segoe UI,sans-serif" font-size="10" font-weight="700" letter-spacing=".5">PRODUCES</text>
<rect x="575" y="454" width="88" height="16" rx="3" fill="rgba(96,80,160,.15)" stroke="#6050a0" stroke-width="1"/>
<text x="619" y="466" fill="#a080e0" font-family="Segoe UI,sans-serif" font-size="11" text-anchor="middle">Superconductors</text>
<text x="575" y="514" fill="#4a5870" font-family="Segoe UI,sans-serif" font-size="10">Updated 2 days ago · 11 pins</text>
<!-- Oceanic P2 node -->
<rect x="872" y="220" width="240" height="200" rx="8" fill="#1a1f2e" stroke="#2a3040" stroke-width="1"/>
<rect x="872" y="220" width="240" height="3" rx="2" fill="#2e5c7a"/>
<rect x="872" y="220" width="240" height="42" fill="#2e5c7a" opacity=".85"/>
<rect x="872" y="220" width="240" height="8" rx="8" fill="#2e5c7a" opacity=".85"/>
<text x="885" y="238" fill="#fff" font-family="Segoe UI,sans-serif" font-size="13" font-weight="700">Jolia III</text>
<text x="1083" y="238" fill="rgba(255,255,255,.65)" font-family="Segoe UI,sans-serif" font-size="10">oceanic</text>
<text x="885" y="254" fill="rgba(255,255,255,.5)" font-family="Segoe UI,sans-serif" font-size="10">Caldari Prime</text>
<text x="885" y="280" fill="#4a5870" font-family="Segoe UI,sans-serif" font-size="10" font-weight="700" letter-spacing=".5">CONSUMES</text>
<rect x="885" y="286" width="110" height="16" rx="3" fill="rgba(96,80,160,.12)" stroke="#6050a0" stroke-width="1"/>
<text x="940" y="298" fill="#a080e0" font-family="Segoe UI,sans-serif" font-size="11" text-anchor="middle">Construction Blocks</text>
<rect x="885" y="306" width="88" height="16" rx="3" fill="rgba(96,80,160,.12)" stroke="#6050a0" stroke-width="1"/>
<text x="929" y="318" fill="#a080e0" font-family="Segoe UI,sans-serif" font-size="11" text-anchor="middle">Superconductors</text>
<text x="885" y="344" fill="#4a5870" font-family="Segoe UI,sans-serif" font-size="10" font-weight="700" letter-spacing=".5">PRODUCES</text>
<rect x="885" y="350" width="116" height="16" rx="3" fill="rgba(144,80,64,.15)" stroke="#905040" stroke-width="1"/>
<text x="943" y="362" fill="#d07050" font-family="Segoe UI,sans-serif" font-size="11" text-anchor="middle">Consumer Electronics</text>
<text x="885" y="400" fill="#4a5870" font-family="Segoe UI,sans-serif" font-size="10">Updated 5 hrs ago · 16 pins</text>
<!-- Arrows -->
<defs>
  <marker id="a1" viewBox="0 0 10 10" refX="9" refY="5" markerWidth="5" markerHeight="5" orient="auto-start-reverse"><path d="M0,0 L10,5 L0,10z" fill="#4a90c8"/></marker>
  <marker id="a2" viewBox="0 0 10 10" refX="9" refY="5" markerWidth="5" markerHeight="5" orient="auto-start-reverse"><path d="M0,0 L10,5 L0,10z" fill="#a080e0"/></marker>
</defs>
<path d="M492,188 C530,188 524,223 562,223" fill="none" stroke="#4a90c8" stroke-width="2" stroke-opacity=".8" marker-end="url(#a1)"/>
<text x="524" y="204" fill="#4a90c8" font-family="Segoe UI,sans-serif" font-size="10" text-anchor="middle" opacity=".9">Reactive Metals</text>
<path d="M492,222 C530,222 524,237 562,237" fill="none" stroke="#4a90c8" stroke-width="2" stroke-opacity=".8" marker-end="url(#a1)"/>
<text x="524" y="242" fill="#4a90c8" font-family="Segoe UI,sans-serif" font-size="10" text-anchor="middle" opacity=".9">Toxic Metals</text>
<path d="M492,398 C530,398 524,437 562,437" fill="none" stroke="#4a90c8" stroke-width="2" stroke-opacity=".8" marker-end="url(#a1)"/>
<text x="524" y="422" fill="#4a90c8" font-family="Segoe UI,sans-serif" font-size="10" text-anchor="middle" opacity=".9">Precious Metals</text>
<path d="M492,572 C530,572 524,437 562,437" fill="none" stroke="#4a90c8" stroke-width="2" stroke-opacity=".7" marker-end="url(#a1)"/>
<text x="520" y="508" fill="#4a90c8" font-family="Segoe UI,sans-serif" font-size="10" text-anchor="middle" opacity=".9">Electrolytes</text>
<path d="M802,248 C838,248 836,318 872,318" fill="none" stroke="#a080e0" stroke-width="2" stroke-opacity=".8" marker-end="url(#a2)"/>
<text x="834" y="276" fill="#a080e0" font-family="Segoe UI,sans-serif" font-size="10" text-anchor="middle" opacity=".9">Constr. Blocks</text>
<path d="M802,464 C838,464 836,355 872,355" fill="none" stroke="#a080e0" stroke-width="2" stroke-opacity=".8" marker-end="url(#a2)"/>
<text x="834" y="422" fill="#a080e0" font-family="Segoe UI,sans-serif" font-size="10" text-anchor="middle" opacity=".9">Superconductors</text>
</svg>
