<svg viewBox="0 0 1280 460" xmlns="http://www.w3.org/2000/svg">
<rect width="1280" height="460" fill="#0a0c10"/>
<rect width="220" height="460" fill="#141820"/>
<rect x="220" width="1" height="460" fill="#2a3040"/>
<rect width="220" height="44" fill="#141820"/>
<rect y="44" width="220" height="1" fill="#2a3040"/>
<text x="14" y="27" fill="#7890b0" font-family="Segoe UI,sans-serif" font-size="11" font-weight="700" letter-spacing="1">CHARACTERS</text>
<rect x="0" y="45" width="220" height="56" fill="rgba(74,144,217,0.12)"/>
<rect x="0" y="45" width="3" height="56" fill="#4a90d9"/>
<rect x="14" y="55" width="36" height="36" rx="4" fill="#2a3540"/>
<text x="58" y="70" fill="#c8d8f0" font-family="Segoe UI,sans-serif" font-size="13" font-weight="600">Caldari Prime</text>
<text x="58" y="86" fill="#4a5870" font-family="Segoe UI,sans-serif" font-size="11">6 planets</text>
<rect x="178" y="52" width="28" height="16" rx="3" fill="rgba(224,64,64,0.2)"/>
<text x="192" y="64" fill="#e04040" font-family="Segoe UI,sans-serif" font-size="11" font-weight="600" text-anchor="middle">2</text>
<rect x="14" y="115" width="36" height="36" rx="4" fill="#2a3540"/>
<text x="58" y="130" fill="#c8d8f0" font-family="Segoe UI,sans-serif" font-size="13" font-weight="600">Minmatar Alt</text>
<text x="58" y="146" fill="#4a5870" font-family="Segoe UI,sans-serif" font-size="11">4 planets</text>
<rect x="14" y="171" width="36" height="36" rx="4" fill="#2a3540"/>
<text x="58" y="186" fill="#c8d8f0" font-family="Segoe UI,sans-serif" font-size="13" font-weight="600">Gallente Hauler</text>
<text x="58" y="202" fill="#4a5870" font-family="Segoe UI,sans-serif" font-size="11">5 planets</text>
<rect x="220" y="0" width="1060" height="44" fill="#141820"/>
<rect x="220" y="44" width="1060" height="1" fill="#2a3040"/>
<text x="246" y="27" fill="#7890b0" font-family="Segoe UI,sans-serif" font-size="13">Production Chain</text>
<text x="380" y="27" fill="#4a90d9" font-family="Segoe UI,sans-serif" font-size="13" font-weight="500">Planet Cards</text>
<rect x="374" y="41" width="84" height="3" rx="1" fill="#4a90d9"/>
<text x="480" y="27" fill="#7890b0" font-family="Segoe UI,sans-serif" font-size="13">Gap Analysis</text>
<text x="578" y="27" fill="#7890b0" font-family="Segoe UI,sans-serif" font-size="13">Haul Plan</text>
<!-- Card 1 Lava EXPIRED -->
<rect x="240" y="60" width="218" height="192" rx="8" fill="#1a1f2e" stroke="#2a3040"/>
<rect x="240" y="60" width="218" height="3" rx="2" fill="#8c3a28"/>
<rect x="240" y="60" width="218" height="40" fill="#8c3a28" opacity=".85"/>
<rect x="240" y="60" width="218" height="8" rx="8" fill="#8c3a28" opacity=".85"/>
<circle cx="253" cy="76" r="4" fill="#e04040"/>
<text x="264" y="78" fill="#fff" font-family="Segoe UI,sans-serif" font-size="12" font-weight="700">Sinq Laison IV</text>
<text x="440" y="78" fill="rgba(255,255,255,.55)" font-family="Segoe UI,sans-serif" font-size="10">lava</text>
<text x="440" y="93" fill="rgba(255,255,255,.35)" font-family="Segoe UI,sans-serif" font-size="9">Lv IV</text>
<text x="264" y="93" fill="rgba(255,255,255,.45)" font-family="Segoe UI,sans-serif" font-size="10">12 pins</text>
<text x="254" y="118" fill="#4a5870" font-family="Segoe UI,sans-serif" font-size="9" font-weight="700" letter-spacing=".5">EXTRACTING</text>
<rect x="254" y="124" width="82" height="14" rx="3" fill="rgba(96,112,96,.15)" stroke="#607060" stroke-width="1"/>
<text x="295" y="135" fill="#707870" font-family="Segoe UI,sans-serif" font-size="10" text-anchor="middle">Base Metals</text>
<rect x="340" y="124" width="76" height="14" rx="3" fill="rgba(96,112,96,.15)" stroke="#607060" stroke-width="1"/>
<text x="378" y="135" fill="#707870" font-family="Segoe UI,sans-serif" font-size="10" text-anchor="middle">Heavy Metals</text>
<rect x="240" y="196" width="218" height="26" fill="rgba(0,0,0,.25)"/>
<rect x="246" y="203" width="56" height="13" rx="3" fill="rgba(224,64,64,.2)" stroke="rgba(224,64,64,.35)"/>
<text x="274" y="213" fill="#e04040" font-family="Segoe UI,sans-serif" font-size="10" font-weight="600" text-anchor="middle">EXPIRED</text>
<rect x="307" y="203" width="56" height="13" rx="3" fill="rgba(224,64,64,.2)" stroke="rgba(224,64,64,.35)"/>
<text x="335" y="213" fill="#e04040" font-family="Segoe UI,sans-serif" font-size="10" font-weight="600" text-anchor="middle">EXPIRED</text>
<text x="254" y="244" fill="#4a5870" font-family="Segoe UI,sans-serif" font-size="9">Updated Jun 14</text>
<!-- Card 2 Barren WARN -->
<rect x="472" y="60" width="218" height="192" rx="8" fill="#1a1f2e" stroke="#2a3040"/>
<rect x="472" y="60" width="218" height="3" rx="2" fill="#7a5f38"/>
<rect x="472" y="60" width="218" height="40" fill="#7a5f38" opacity=".85"/>
<rect x="472" y="60" width="218" height="8" rx="8" fill="#7a5f38" opacity=".85"/>
<circle cx="485" cy="76" r="4" fill="#e0a030"/>
<text x="496" y="78" fill="#fff" font-family="Segoe UI,sans-serif" font-size="12" font-weight="700">Sinq Laison IV b</text>
<text x="672" y="78" fill="rgba(255,255,255,.55)" font-family="Segoe UI,sans-serif" font-size="10">barren</text>
<text x="672" y="93" fill="rgba(255,255,255,.35)" font-family="Segoe UI,sans-serif" font-size="9">Lv III</text>
<text x="496" y="93" fill="rgba(255,255,255,.45)" font-family="Segoe UI,sans-serif" font-size="10">10 pins</text>
<text x="486" y="118" fill="#4a5870" font-family="Segoe UI,sans-serif" font-size="9" font-weight="700" letter-spacing=".5">EXTRACTING</text>
<rect x="486" y="124" width="82" height="14" rx="3" fill="rgba(96,112,96,.15)" stroke="#607060" stroke-width="1"/>
<text x="527" y="135" fill="#707870" font-family="Segoe UI,sans-serif" font-size="10" text-anchor="middle">Noble Metals</text>
<text x="486" y="152" fill="#4a5870" font-family="Segoe UI,sans-serif" font-size="9" font-weight="700" letter-spacing=".5">FACTORIES</text>
<text x="486" y="167" fill="#7890b0" font-family="Segoe UI,sans-serif" font-size="11">3 active</text>
<rect x="472" y="196" width="218" height="26" fill="rgba(0,0,0,.25)"/>
<rect x="478" y="203" width="36" height="13" rx="3" fill="rgba(224,160,48,.2)" stroke="rgba(224,160,48,.35)"/>
<text x="496" y="213" fill="#e0a030" font-family="Segoe UI,sans-serif" font-size="10" font-weight="600" text-anchor="middle">2.5h</text>
<rect x="518" y="203" width="36" height="13" rx="3" fill="rgba(224,160,48,.2)" stroke="rgba(224,160,48,.35)"/>
<text x="536" y="213" fill="#e0a030" font-family="Segoe UI,sans-serif" font-size="10" font-weight="600" text-anchor="middle">3.1h</text>
<text x="486" y="244" fill="#4a5870" font-family="Segoe UI,sans-serif" font-size="9">Updated Jun 15</text>
<!-- Card 3 Oceanic OK -->
<rect x="704" y="60" width="218" height="192" rx="8" fill="#1a1f2e" stroke="#2a3040"/>
<rect x="704" y="60" width="218" height="3" rx="2" fill="#2e5c7a"/>
<rect x="704" y="60" width="218" height="40" fill="#2e5c7a" opacity=".85"/>
<rect x="704" y="60" width="218" height="8" rx="8" fill="#2e5c7a" opacity=".85"/>
<circle cx="717" cy="76" r="4" fill="#4caf70"/>
<text x="728" y="78" fill="#fff" font-family="Segoe UI,sans-serif" font-size="12" font-weight="700">Jolia III</text>
<text x="904" y="78" fill="rgba(255,255,255,.55)" font-family="Segoe UI,sans-serif" font-size="10">oceanic</text>
<text x="905" y="93" fill="rgba(255,255,255,.35)" font-family="Segoe UI,sans-serif" font-size="9">Lv V</text>
<text x="728" y="93" fill="rgba(255,255,255,.45)" font-family="Segoe UI,sans-serif" font-size="10">16 pins</text>
<text x="718" y="118" fill="#4a5870" font-family="Segoe UI,sans-serif" font-size="9" font-weight="700" letter-spacing=".5">EXTRACTING</text>
<rect x="718" y="124" width="80" height="14" rx="3" fill="rgba(96,112,96,.15)" stroke="#607060" stroke-width="1"/>
<text x="758" y="135" fill="#707870" font-family="Segoe UI,sans-serif" font-size="10" text-anchor="middle">Aqueous Liquids</text>
<text x="718" y="152" fill="#4a5870" font-family="Segoe UI,sans-serif" font-size="9" font-weight="700" letter-spacing=".5">FACTORIES</text>
<text x="718" y="167" fill="#7890b0" font-family="Segoe UI,sans-serif" font-size="11">5 active</text>
<rect x="704" y="196" width="218" height="26" fill="rgba(0,0,0,.25)"/>
<rect x="710" y="203" width="36" height="13" rx="3" fill="rgba(76,175,112,.2)" stroke="rgba(76,175,112,.35)"/>
<text x="728" y="213" fill="#4caf70" font-family="Segoe UI,sans-serif" font-size="10" font-weight="600" text-anchor="middle">3.4d</text>
<rect x="750" y="203" width="36" height="13" rx="3" fill="rgba(76,175,112,.2)" stroke="rgba(76,175,112,.35)"/>
<text x="768" y="213" fill="#4caf70" font-family="Segoe UI,sans-serif" font-size="10" font-weight="600" text-anchor="middle">3.4d</text>
<text x="718" y="244" fill="#4a5870" font-family="Segoe UI,sans-serif" font-size="9">Updated Jun 16</text>
<!-- Card 4 Gas OK -->
<rect x="936" y="60" width="218" height="192" rx="8" fill="#1a1f2e" stroke="#2a3040"/>
<rect x="936" y="60" width="218" height="3" rx="2" fill="#6a4a8c"/>
<rect x="936" y="60" width="218" height="40" fill="#6a4a8c" opacity=".85"/>
<rect x="936" y="60" width="218" height="8" rx="8" fill="#6a4a8c" opacity=".85"/>
<circle cx="949" cy="76" r="4" fill="#4caf70"/>
<text x="960" y="78" fill="#fff" font-family="Segoe UI,sans-serif" font-size="12" font-weight="700">Luminaire VII</text>
<text x="1136" y="78" fill="rgba(255,255,255,.55)" font-family="Segoe UI,sans-serif" font-size="10">gas</text>
<text x="1136" y="93" fill="rgba(255,255,255,.35)" font-family="Segoe UI,sans-serif" font-size="9">Lv IV</text>
<text x="960" y="93" fill="rgba(255,255,255,.45)" font-family="Segoe UI,sans-serif" font-size="10">11 pins</text>
<text x="950" y="118" fill="#4a5870" font-family="Segoe UI,sans-serif" font-size="9" font-weight="700" letter-spacing=".5">EXTRACTING</text>
<rect x="950" y="124" width="66" height="14" rx="3" fill="rgba(96,112,96,.15)" stroke="#607060" stroke-width="1"/>
<text x="983" y="135" fill="#707870" font-family="Segoe UI,sans-serif" font-size="10" text-anchor="middle">Noble Gas</text>
<rect x="950" y="142" width="74" height="14" rx="3" fill="rgba(96,112,96,.15)" stroke="#607060" stroke-width="1"/>
<text x="987" y="153" fill="#707870" font-family="Segoe UI,sans-serif" font-size="10" text-anchor="middle">Reactive Gas</text>
<text x="950" y="172" fill="#4a5870" font-family="Segoe UI,sans-serif" font-size="9" font-weight="700" letter-spacing=".5">FACTORIES</text>
<text x="950" y="187" fill="#7890b0" font-family="Segoe UI,sans-serif" font-size="11">2 active</text>
<rect x="936" y="196" width="218" height="26" fill="rgba(0,0,0,.25)"/>
<rect x="942" y="203" width="36" height="13" rx="3" fill="rgba(76,175,112,.2)" stroke="rgba(76,175,112,.35)"/>
<text x="960" y="213" fill="#4caf70" font-family="Segoe UI,sans-serif" font-size="10" font-weight="600" text-anchor="middle">2.1d</text>
<text x="950" y="244" fill="#4a5870" font-family="Segoe UI,sans-serif" font-size="9">Updated Jun 17</text>
</svg>
